<svg width="549" height="225" viewBox="0 0 549 225" fill="none" xmlns="http://www.w3.org/2000/svg">
<path d="M110.087 124.711C136.313 116.554 156.386 100.42 156.386 66.8756C156.397 26.0365 127.295 0.000212993 68.3971 0.000212993C42.9314 0.000212993 15.5748 -0.0221646 0 0.391821V224.503H35.2671V216.313V133.751H76.2852L135.519 224.503H167.575H177.935M65.309 99.9385H35.2559V34.7862C35.2559 34.7862 52.3971 34.9988 64.4363 34.9988C94.8138 34.9988 122.551 41.7456 122.551 67.9498C122.551 94.1539 95.2614 99.9385 65.2978 99.9385H65.309Z" fill="white"/>
<path d="M305.07 38.4787L288.052 76.9682L236.841 192.772L222.799 224.492H188.293L202.313 192.772L270.441 38.7585L287.414 0.39209L305.07 38.4787Z" fill="white"/>
<path d="M391.316 224.492H257.531L271.495 192.929L342.152 192.917L305.99 114.92L322.851 76.8113L376.703 192.85L391.316 224.492Z" fill="white"/>
<path d="M409.967 112.358C409.967 156.766 446.688 192.761 491.981 192.761C514.134 192.761 534.241 184.157 548.988 170.148V207.877C531.846 218.529 511.606 224.682 489.933 224.682C428.025 224.682 377.844 174.501 377.844 112.604C377.844 50.7079 428.025 0.537354 489.944 0.537354C511.617 0.537354 531.857 6.68 548.999 17.3429V54.568C534.241 40.5709 514.146 31.9555 491.992 31.9555C446.688 31.9555 409.978 67.961 409.978 112.358H409.967Z" fill="white"/>
</svg>
